<?xml version="1.0" encoding="utf-8"?>
<!-- Generator: Adobe Illustrator 23.0.3, SVG Export Plug-In . SVG Version: 6.00 Build 0)  -->
<svg version="1.1" id="Layer_1" xmlns="http://www.w3.org/2000/svg" xmlns:xlink="http://www.w3.org/1999/xlink" x="0px" y="0px"
	 viewBox="0 0 328.82 243.78" style="enable-background:new 0 0 328.82 243.78;" xml:space="preserve">
<style type="text/css">
	.st0{fill-rule:evenodd;clip-rule:evenodd;fill:#FFFFFF;}
	.st1{clip-path:url(#SVGID_2_);fill:#BE1E2D;}
</style>
<path id="Background" class="st0" d="M0,0h328.82v243.78H0V0z"/>
<g>
	<defs>
		<rect id="SVGID_1_" y="0" width="328.82" height="243.78"/>
	</defs>
	<clipPath id="SVGID_2_">
		<use xlink:href="#SVGID_1_"  style="overflow:visible;"/>
	</clipPath>
	<path class="st1" d="M-78.2,98l0,47.79L407.01,98l0,47.79L-78.2,98z"/>
	<path class="st1" d="M140.51,364.5h47.79l-47.79-485.21l47.79,0L140.51,364.5z"/>
	<path class="st1" d="M49.49,336.88l44.15,18.29l141.53-466.56l44.15,18.29L49.49,336.88z"/>
	<path class="st1" d="M-24.03,276.54l33.79,33.79l309.3-376.89l33.79,33.79L-24.03,276.54z"/>
	<path class="st1" d="M-68.87,192.66l18.29,44.15L379.4,6.97l18.29,44.15L-68.87,192.66z"/>
	<path class="st1" d="M-50.59,6.97l-18.29,44.15l466.57,141.53l-18.29,44.15L-50.59,6.97z"/>
	<path class="st1" d="M9.76-66.55l-33.79,33.79l376.89,309.3l-33.79,33.79L9.76-66.55z"/>
	<path class="st1" d="M93.64-111.39L49.49-93.1l229.83,429.99l-44.15,18.29L93.64-111.39z"/>
	<path class="st1" d="M225.35,121.89c0,33.66-27.29,60.94-60.94,60.94s-60.94-27.29-60.94-60.94c0,0,0,0,0,0
		c0-33.66,27.29-60.94,60.94-60.94h0C198.07,60.94,225.35,88.23,225.35,121.89z"/>
</g>
</svg>
