<?xml version="1.0" encoding="utf-8"?>
<!-- Generator: Adobe Illustrator 23.0.3, SVG Export Plug-In . SVG Version: 6.00 Build 0)  -->
<svg version="1.1" id="Layer_1" xmlns="http://www.w3.org/2000/svg" xmlns:xlink="http://www.w3.org/1999/xlink" x="0px" y="0px"
	 viewBox="0 0 328.82 243.78" style="enable-background:new 0 0 328.82 243.78;" xml:space="preserve">
<style type="text/css">
	.st0{fill:#AE1C28;}
	.st1{fill:#FFFFFF;}
</style>
<rect id="Background" class="st0" width="328.82" height="243.78"/>
<polygon id="Cross_1" class="st1" points="328.82,82.2 153.07,82.2 153.07,0 73.7,0 73.7,82.2 0,82.2 0,161.57 73.7,161.57 
	73.7,243.78 153.07,243.78 153.07,161.57 328.82,161.57 "/>
<polygon id="Cross_2" points="0,90.71 82.2,90.71 82.2,0 144.57,0 144.57,90.71 328.82,90.71 328.82,153.07 144.57,153.07 
	144.57,243.78 82.2,243.78 82.2,153.07 0,153.07 "/>
<polygon id="Cross_3" class="st1" points="328.82,99.21 328.82,144.57 136.06,144.57 136.06,243.78 90.71,243.78 90.71,144.57 
	0,144.57 0,99.21 90.71,99.21 90.71,0 136.06,0 136.06,99.21 "/>
<polygon id="Cross_4" points="99.21,0 99.21,107.72 0,107.72 0,136.06 99.21,136.06 99.21,243.78 127.56,243.78 127.56,136.06 
	328.82,136.06 328.82,107.72 127.56,107.72 127.56,0 "/>
</svg>
