<?xml version="1.0" encoding="utf-8"?>
<!-- Generator: Adobe Illustrator 23.0.3, SVG Export Plug-In . SVG Version: 6.00 Build 0)  -->
<svg version="1.1" id="Layer_1" xmlns="http://www.w3.org/2000/svg" xmlns:xlink="http://www.w3.org/1999/xlink" x="0px" y="0px"
	 viewBox="0 0 328.82 243.78" style="enable-background:new 0 0 328.82 243.78;" xml:space="preserve">
<style type="text/css">
	.st0{fill:#CC0000;}
	.st1{fill:#FFD700;}
</style>
<rect id="Background" y="0" class="st0" width="328.82" height="243.78"/>
<g id="Hammer__x26__Sicle">
	<path id="Hammer" class="st1" d="M287.66,20.04l5.29,5.31l4.99-4.94c7.59,8.12,15.55,15.94,23.08,24.09
		c1.13,1.14,2.97,1.14,4.11,0.01c1.14-1.13,1.15-2.96,0.01-4.1c-8.08-7.61-16.19-15.27-24.27-22.91l6.72-6.66l-9.35-1.29
		L287.66,20.04z"/>
	<path id="Sicle" class="st1" d="M304.72,2.83c4.35,2.44,7.66,5.95,9.6,9.62c1.98,3.72,2.84,7.6,2.86,10.7
		c0.04,6.36-5.17,11.52-11.55,11.52c-3.4,0-6.46-1.47-8.58-3.8l-1.17,0.98c-0.2-0.08-0.41-0.12-0.62-0.12c-0.51,0-1,0.23-1.33,0.62
		c-0.83,0.11-1.53,0.68-1.8,1.48c-0.88,1.76-2.42,3.14-4.29,3.77c-0.02,0.01-0.03,0.01-0.05,0.02c-0.86,0.32-1.73,0.89-2.46,1.62
		c-1.46,1.46-2.17,3.34-1.77,4.65c-0.04,0.11-0.06,0.23-0.06,0.36c0,0.61,0.49,1.1,1.1,1.1c0.15,0,0.3-0.03,0.44-0.09
		c1.32,0.3,3.1-0.43,4.5-1.83c0.79-0.8,1.39-1.74,1.68-2.67c0.65-1.85,2.05-3.36,3.82-4.21c0.04-0.02,0.08-0.04,0.11-0.06
		c0.59-0.28,1.03-0.82,1.18-1.46c2.72,3.2,6.8,5.25,11.36,5.35c8.37,0.2,14.62-5.95,14.91-14.78c0.15-4.45-1.58-10.18-5.51-14.88
		C314.11,7.13,309.71,4.15,304.72,2.83L304.72,2.83z"/>
</g>
</svg>
