<?xml version="1.0" encoding="utf-8"?>
<!-- Generator: Adobe Illustrator 23.0.3, SVG Export Plug-In . SVG Version: 6.00 Build 0)  -->
<svg version="1.1" id="Layer_1" xmlns="http://www.w3.org/2000/svg" xmlns:xlink="http://www.w3.org/1999/xlink" x="0px" y="0px"
	 viewBox="0 0 328.82 243.78" style="enable-background:new 0 0 328.82 243.78;" xml:space="preserve">
<style type="text/css">
	.st0{fill:#BA1F40;}
	.st1{fill:#FFFFFF;}
	.st2{fill:#202E61;}
</style>
<rect id="Background" y="0" class="st0" width="328.82" height="243.78"/>
<g id="Stripes">
	<rect y="199.46" class="st1" width="328.82" height="22.16"/>
	<rect y="155.13" class="st1" width="328.82" height="22.16"/>
	<rect y="110.81" class="st1" width="328.82" height="22.16"/>
	<rect y="66.48" class="st1" width="328.82" height="22.16"/>
	<rect y="22.16" class="st1" width="328.82" height="22.16"/>
</g>
<rect id="Corner" y="0" class="st2" width="164.41" height="155.13"/>
<g id="Stars">
	<g>
		<path class="st1" d="M13.88,4.02l5.22,16.05L5.44,10.15h16.88L8.66,20.07L13.88,4.02z"/>
		<path class="st1" d="M41.25,4.02l5.22,16.05l-13.65-9.92h16.88l-13.65,9.92L41.25,4.02z"/>
		<path class="st1" d="M68.62,4.02l5.22,16.05l-13.65-9.92h16.88L63.4,20.07L68.62,4.02z"/>
		<path class="st1" d="M95.98,4.02l5.22,16.05l-13.65-9.92h16.88l-13.65,9.92L95.98,4.02z"/>
		<path class="st1" d="M123.35,4.02l5.22,16.05l-13.65-9.92h16.88l-13.65,9.92L123.35,4.02z"/>
		<path class="st1" d="M150.72,4.02l5.22,16.05l-13.65-9.92h16.88l-13.65,9.92L150.72,4.02z"/>
	</g>
	<g>
		<path class="st1" d="M13.88,29.87l5.22,16.05L5.44,36h16.88L8.66,45.92L13.88,29.87z"/>
		<path class="st1" d="M41.25,29.87l5.22,16.05L32.81,36h16.88l-13.65,9.92L41.25,29.87z"/>
		<path class="st1" d="M68.62,29.87l5.22,16.05L60.18,36h16.88L63.4,45.92L68.62,29.87z"/>
		<path class="st1" d="M95.98,29.87l5.22,16.05L87.55,36h16.88l-13.65,9.92L95.98,29.87z"/>
		<path class="st1" d="M123.35,29.87l5.22,16.05L114.92,36h16.88l-13.65,9.92L123.35,29.87z"/>
		<path class="st1" d="M150.72,29.87l5.22,16.05L142.29,36h16.88l-13.65,9.92L150.72,29.87z"/>
	</g>
	<g>
		<path class="st1" d="M13.88,55.72l5.22,16.05L5.44,61.86h16.88L8.66,71.78L13.88,55.72z"/>
		<path class="st1" d="M41.25,55.72l5.22,16.05l-13.65-9.92h16.88l-13.65,9.92L41.25,55.72z"/>
		<path class="st1" d="M68.62,55.72l5.22,16.05l-13.65-9.92h16.88L63.4,71.78L68.62,55.72z"/>
		<path class="st1" d="M95.98,55.72l5.22,16.05l-13.65-9.92h16.88l-13.65,9.92L95.98,55.72z"/>
		<path class="st1" d="M123.35,55.72l5.22,16.05l-13.65-9.92h16.88l-13.65,9.92L123.35,55.72z"/>
		<path class="st1" d="M150.72,55.72l5.22,16.05l-13.65-9.92h16.88l-13.65,9.92L150.72,55.72z"/>
	</g>
	<g>
		<path class="st1" d="M13.88,81.58l5.22,16.05L5.44,87.71h16.88L8.66,97.63L13.88,81.58z"/>
		<path class="st1" d="M41.25,81.58l5.22,16.05l-13.65-9.92h16.88l-13.65,9.92L41.25,81.58z"/>
		<path class="st1" d="M68.62,81.58l5.22,16.05l-13.65-9.92h16.88L63.4,97.63L68.62,81.58z"/>
		<path class="st1" d="M95.98,81.58l5.22,16.05l-13.65-9.92h16.88l-13.65,9.92L95.98,81.58z"/>
		<path class="st1" d="M123.35,81.58l5.22,16.05l-13.65-9.92h16.88l-13.65,9.92L123.35,81.58z"/>
		<path class="st1" d="M150.72,81.58l5.22,16.05l-13.65-9.92h16.88l-13.65,9.92L150.72,81.58z"/>
	</g>
	<g>
		<path class="st1" d="M13.88,107.43l5.22,16.05l-13.65-9.92h16.88l-13.65,9.92L13.88,107.43z"/>
		<path class="st1" d="M41.25,107.43l5.22,16.05l-13.65-9.92h16.88l-13.65,9.92L41.25,107.43z"/>
		<path class="st1" d="M68.62,107.43l5.22,16.05l-13.65-9.92h16.88l-13.65,9.92L68.62,107.43z"/>
		<path class="st1" d="M95.98,107.43l5.22,16.05l-13.65-9.92h16.88l-13.65,9.92L95.98,107.43z"/>
		<path class="st1" d="M123.35,107.43l5.22,16.05l-13.65-9.92h16.88l-13.65,9.92L123.35,107.43z"/>
		<path class="st1" d="M150.72,107.43l5.22,16.05l-13.65-9.92h16.88l-13.65,9.92L150.72,107.43z"/>
	</g>
	<g>
		<path class="st1" d="M13.88,133.28l5.22,16.05l-13.65-9.92h16.88l-13.65,9.92L13.88,133.28z"/>
		<path class="st1" d="M41.25,133.28l5.22,16.05l-13.65-9.92h16.88l-13.65,9.92L41.25,133.28z"/>
		<path class="st1" d="M68.62,133.28l5.22,16.05l-13.65-9.92h16.88l-13.65,9.92L68.62,133.28z"/>
		<path class="st1" d="M95.98,133.28l5.22,16.05l-13.65-9.92h16.88l-13.65,9.92L95.98,133.28z"/>
		<path class="st1" d="M123.35,133.28l5.22,16.05l-13.65-9.92h16.88l-13.65,9.92L123.35,133.28z"/>
		<path class="st1" d="M150.72,133.28l5.22,16.05l-13.65-9.92h16.88l-13.65,9.92L150.72,133.28z"/>
	</g>
</g>
</svg>
