<?xml version="1.0" encoding="utf-8"?>
<!-- Generator: Adobe Illustrator 23.0.3, SVG Export Plug-In . SVG Version: 6.00 Build 0)  -->
<svg version="1.1" id="Layer_1" xmlns="http://www.w3.org/2000/svg" xmlns:xlink="http://www.w3.org/1999/xlink" x="0px" y="0px"
	 viewBox="0 0 328.82 243.78" style="enable-background:new 0 0 328.82 243.78;" xml:space="preserve">
<style type="text/css">
	.st0{fill-rule:evenodd;clip-rule:evenodd;fill:#FE0000;}
	.st1{fill-rule:evenodd;clip-rule:evenodd;fill:#000095;}
	.st2{clip-path:url(#SVGID_2_);}
	.st3{clip-path:url(#SVGID_4_);fill:#FFFFFF;}
</style>
<path id="Background" class="st0" d="M0,0h328.82v243.78H0V0z"/>
<path id="Corner" class="st1" d="M0,0h164.41v121.89H0V0z"/>
<g>
	<defs>
		<rect id="SVGID_1_" x="0" y="0" width="328.82" height="243.78"/>
	</defs>
	<clipPath id="SVGID_2_">
		<use xlink:href="#SVGID_1_"  style="overflow:visible;"/>
	</clipPath>
	<g class="st2">
		<defs>
			<path id="SVGID_3_" d="M0,48.19c-26.57,0-48.19-21.62-48.19-48.19S-26.57-48.19,0-48.19S48.19-26.57,48.19,0S26.57,48.19,0,48.19
				z M0-42.52c-23.45,0-42.52,19.07-42.52,42.52S-23.45,42.52,0,42.52S42.52,23.45,42.52,0S23.45-42.52,0-42.52z M85.04-85.04
				H-85.04V85.04H85.04V-85.04z"/>
		</defs>
		<clipPath id="SVGID_4_">
			<use xlink:href="#SVGID_3_"  style="overflow:visible;"/>
		</clipPath>
		<path class="st3" d="M0-85.04L-42.52,73.65L73.65-42.52L-85.04,0L73.65,42.52L-42.52-73.65L0,85.04L42.52-73.65L-73.65,42.52
			L85.04,0L-73.65-42.52L42.52,73.65L0-85.04"/>
	</g>
</g>
</svg>
