<?xml version="1.0" encoding="utf-8"?>
<!-- Generator: Adobe Illustrator 23.0.3, SVG Export Plug-In . SVG Version: 6.00 Build 0)  -->
<svg version="1.1" id="Layer_1" xmlns="http://www.w3.org/2000/svg" xmlns:xlink="http://www.w3.org/1999/xlink" x="0px" y="0px"
	 viewBox="0 0 328.82 243.78" style="enable-background:new 0 0 328.82 243.78;" xml:space="preserve">
<style type="text/css">
	.st0{fill:#FFFFFF;}
	.st1{fill:#C8102E;}
	.st2{fill:#012169;}
</style>
<rect x="0.01" y="0" class="st0" width="328.81" height="243.78"/>
<path class="st1" d="M0.01,0v18.95l84.04,62.31l25.56,0L0.01,0z M144.68,0v97.5H0.01v48.72h144.68v97.55h39.46v-97.55h144.68V97.5
	H184.14V0L144.68,0z M303.25,0L197.29,78.56v2.7h21.92L328.81,0L303.25,0z M109.33,162.52L0,243.78h25.56l105.96-78.56v-2.7
	L109.33,162.52z M219.21,162.52l109.6,81.26v-18.95l-84.02-62.31H219.21z"/>
<path class="st2" d="M38.48,0l93.05,69.07V0L38.48,0z M197.29,0v69.08L290.48,0L197.29,0z M0.01,28.43v52.82l71.26,0.01L0.01,28.43z
	 M328.82,28.43l-71.25,52.83h71.25V28.43z M0.01,162.52v52.84l71.25-52.84H0.01z M257.59,162.52l71.23,53.44v-53.44H257.59z
	 M197.29,174.69v69.08h93.19L197.29,174.69z M131.53,174.7l-93.18,69.08h93.18V174.7z"/>
</svg>
